<svg width="800" height="600" xmlns="http://www.w3.org/2000/svg" xmlns:svg="http://www.w3.org/2000/svg">
 <g>
  <title>Layer 1</title>
  <path id="P2" stroke-width="1.5" stroke="#7f0000" fill="none" d="m240,240a20,20 0 1 1 -40,0a20,20 0 1 1 40,0l20,0m-80,0l20,0m6,0a7,7 0 1 1 14,0a7,7 0 1 0 14,0"/>
  <path id="P3" stroke-width="1.5" stroke="#7f0000" fill="none" d="m240,360a20,20 0 1 1 -40,0a20,20 0 1 1 40,0l20,0m-80,0l20,0m6,0a7,7 0 1 1 14,0a7,7 0 1 0 14,0"/>
  <polyline id="Li7" points="200,240 150,240  150,360  200,360 " stroke-width="1.5" stroke="#000000" fill="none"/>
  <polyline id="Li8" points="150,300 100,300  100,390 " stroke-width="1.5" stroke="#000000" fill="none"/>
  <path id="P4" stroke-width="1.5" stroke="#7f0000" fill="none" d="m100,380l0,14m20,0l-40,0m10,12l20,0m-10,0l0,14"/>
  <polyline id="Li9" points="100,410 100,450  100,450 " stroke-width="1.5" stroke="#000000" fill="none"/>
  <path id="P5" stroke-width="1.5" stroke="#7f0000" fill="none" d="m100,450l0,24m-20,0l40,0m-10,8l-20,0m4,8l12,0"/>
  <polyline id="Li10" points="240,240 300,240 " stroke-width="1.5" stroke="#000000" fill="none"/>
  <polyline id="Li11" points="240,360 300,360 " stroke-width="1.5" stroke="#000000" fill="none"/>
  <polyline id="Li12" points="300,400 300,200  500,300  300,400 " stroke-width="1.5" stroke="#000000" fill="none"/>
  <polyline id="Li13" points="400,250 400,170  400,170 " stroke-width="1.5" stroke="#000000" fill="none"/>
  <polyline id="Li14" points="400,350 400,430 " stroke-width="1.5" stroke="#000000" fill="none"/>
  <polyline id="Li16" points="460,320 460,380  700,380 " stroke-width="1.5" stroke="#000000" fill="none"/>
  <polyline id="Li17" points="560,220 560,250 " stroke-width="1.5" stroke="#000000" fill="none"/>
  <path id="Cad3" stroke-width="1.5" stroke="#7f0000" fill="none" d="m560,260l0,7m10,0l-20,0m0,6l20,0m-10,0l0,7"/>
  <path id="P6" stroke-width="1.5" stroke="#7f0000" fill="none" d="m560,300l0,12m-10,0l20,0m-5,4l-10,0m2,4l6,0"/>
  <polyline id="Li19" points="650,220 650,250 " stroke-width="1.5" stroke="#000000" fill="none"/>
  <path id="R1" stroke-width="1.5" stroke="#7f0000" fill="none" d="m650,250l0,5l5,3l-10,5l10,5l-10,5l10,5l-10,5l5,3l0,4"/>
  <polyline id="Li20" points="560,250 560,260 " stroke-width="1.5" stroke="#000000" fill="none"/>
  <polyline id="Li21" points="560,280 560,300 " stroke-width="1.5" stroke="#000000" fill="none"/>
  <polyline id="Li22" points="650,290 650,300 " stroke-width="1.5" stroke="#000000" fill="none"/>
  <path id="P7" stroke-width="1.5" stroke="#7f0000" fill="none" d="m650,300l0,12m-10,0l20,0m-5,4l-10,0m2,4l6,0"/>
  <polyline fill="none" stroke="#000000" stroke-width="1.5" points="560,380 560,420 " id="Li23"/>
  <path d="m560,420l0,7m10,0l-20,0m0,6l20,0m-10,0l0,7" fill="none" stroke="#7f0000" stroke-width="1.5" id="Cad4"/>
  <path d="m650,410l0,5l5,3l-10,5l10,5l-10,5l10,5l-10,5l5,3l0,4" fill="none" stroke="#7f0000" stroke-width="1.5" id="R0"/>
  <polyline fill="none" stroke="#000000" stroke-width="1.5" points="560,440 560,460 " id="Li25"/>
  <path d="m560,460l0,12m-10,0l20,0m-5,4l-10,0m2,4l6,0" fill="none" stroke="#7f0000" stroke-width="1.5" id="P8"/>
  <polyline fill="none" stroke="#000000" stroke-width="1.5" points="650,460 650,470 " id="Li26"/>
  <path d="m650,460l0,12m-10,0l20,0m-5,4l-10,0m2,4l6,0" fill="none" stroke="#7f0000" stroke-width="1.5" id="P9"/>
  <polyline fill="none" stroke="#000000" stroke-width="1.5" points="650,380 650,410 " id="Li27"/>
  <polyline fill="none" stroke="#000000" stroke-width="1.5" points="650,450 650,460 " id="Li28"/>
  <path d="m400,430l0,12m-10,0l20,0m-5,4l-10,0m2,4l6,0" fill="none" stroke="#7f0000" stroke-width="1.5" id="P10"/>
  <path id="s_1" d="m432.77001,318l-3.57,-9.99l1.32,0l2.25,6.41q0.43,1.21 0.63,2.18l0,0q0.17,-0.86 0.63,-2.21l0,0l2.24,-6.38l1.33,0l-3.57,9.99l-1.26,0zm12.41,-3.77l0,0q0,1.84 -0.93,2.87q-0.93,1.04 -2.57,1.04l0,0q-1.02,0 -1.81,-0.48q-0.79,-0.47 -1.21,-1.36q-0.42,-0.89 -0.42,-2.07l0,0q0,-1.83 0.91,-2.85q0.92,-1.02 2.57,-1.02l0,0q1.59,0 2.52,1.04q0.94,1.04 0.94,2.83zm-5.67,0l0,0q0,1.42 0.56,2.15q0.55,0.74 1.64,0.74l0,0q1.07,0 1.63,-0.74q0.56,-0.73 0.56,-2.15l0,0q0,-1.41 -0.56,-2.13q-0.56,-0.71 -1.65,-0.71l0,0q-2.18,0 -2.18,2.84zm13.94,3.77l-1.21,0l0,-4.8q0,-0.91 -0.41,-1.36q-0.41,-0.45 -1.27,-0.45l0,0q-1.16,0 -1.68,0.64q-0.53,0.64 -0.53,2.08l0,0l0,3.89l-1.23,0l0,-7.51l1,0l0.18,1.03l0.07,0q0.35,-0.55 0.98,-0.86q0.62,-0.3 1.38,-0.3l0,0q1.38,0 2.05,0.67q0.67,0.67 0.67,2.08l0,0l0,4.89z" fill="#0000ff"/>
  <path id="s_2" d="m434.10333,288.66666l-3.57,-9.99l1.32,0l2.25,6.41q0.43,1.21 0.63,2.18l0,0q0.17,-0.86 0.63,-2.21l0,0l2.24,-6.38l1.33,0l-3.57,9.99l-1.26,0zm12.41,-3.77l0,0q0,1.84 -0.93,2.87q-0.93,1.04 -2.57,1.04l0,0q-1.02,0 -1.81,-0.48q-0.79,-0.47 -1.21,-1.36q-0.42,-0.89 -0.42,-2.07l0,0q0,-1.83 0.91,-2.85q0.92,-1.02 2.57,-1.02l0,0q1.59,0 2.52,1.04q0.94,1.04 0.94,2.83zm-5.67,0l0,0q0,1.42 0.56,2.15q0.55,0.74 1.64,0.74l0,0q1.07,0 1.63,-0.74q0.56,-0.73 0.56,-2.15l0,0q0,-1.41 -0.56,-2.13q-0.56,-0.71 -1.65,-0.71l0,0q-2.18,0 -2.18,2.84zm11.17,3.91l0,0q-1.51,0 -2.33,-1.09l0,0l-0.08,0l0.03,0.28q0.05,0.53 0.05,0.95l0,0l0,3.08l-1.23,0l0,-10.87l1.02,0l0.16,1.03l0.05,0q0.44,-0.62 1.02,-0.89q0.57,-0.27 1.32,-0.27l0,0q1.47,0 2.28,1.01q0.81,1.02 0.81,2.86l0,0q0,1.84 -0.82,2.87q-0.81,1.04 -2.28,1.04zm-0.21,-6.75l0,0q-1.11,0 -1.61,0.63q-0.49,0.63 -0.51,1.97l0,0l0,0.24q0,1.53 0.51,2.21q0.51,0.68 1.64,0.68l0,0q0.94,0 1.47,-0.77q0.53,-0.76 0.53,-2.13l0,0q0,-1.37 -0.53,-2.1q-0.53,-0.73 -1.5,-0.73z" fill="#0000ff"/>
  <polyline id="Li29" points="390,170 410,170 " stroke-width="1.5" stroke="#000000" fill="none"/>
  <path fill="#0000ff" d="m390.10333,165.2l-3.57,-9.99l1.32,0l2.25,6.41q0.43,1.21 0.63,2.18l0,0q0.17,-0.86 0.63,-2.21l0,0l2.24,-6.38l1.33,0l-3.57,9.99l-1.26,0zm8.54,0.14l0,0q-1.46,0 -2.27,-1.02q-0.8,-1.01 -0.8,-2.86l0,0q0,-1.84 0.81,-2.87q0.81,-1.03 2.28,-1.03l0,0q1.51,0 2.32,1.1l0,0l0.09,0q-0.02,-0.13 -0.05,-0.55q-0.04,-0.41 -0.04,-0.55l0,0l0,-3l1.23,0l0,10.64l-0.99,0l-0.18,-1l-0.06,0q-0.78,1.14 -2.34,1.14zm0.2,-1.02l0,0q1.12,0 1.64,-0.61q0.51,-0.62 0.51,-2.01l0,0l0,-0.23q0,-1.56 -0.52,-2.23q-0.52,-0.66 -1.64,-0.66l0,0q-0.95,0 -1.47,0.75q-0.52,0.76 -0.52,2.16l0,0q0,1.39 0.51,2.11q0.52,0.72 1.49,0.72zm8.42,1.02l0,0q-1.47,0 -2.27,-1.02q-0.81,-1.01 -0.81,-2.86l0,0q0,-1.84 0.81,-2.87q0.81,-1.03 2.28,-1.03l0,0q1.51,0 2.32,1.1l0,0l0.09,0q-0.02,-0.13 -0.05,-0.55q-0.04,-0.41 -0.04,-0.55l0,0l0,-3l1.23,0l0,10.64l-0.99,0l-0.18,-1l-0.06,0q-0.78,1.14 -2.33,1.14zm0.19,-1.02l0,0q1.13,0 1.64,-0.61q0.52,-0.62 0.52,-2.01l0,0l0,-0.23q0,-1.56 -0.52,-2.23q-0.53,-0.66 -1.65,-0.66l0,0q-0.95,0 -1.47,0.75q-0.52,0.76 -0.52,2.16l0,0q0,1.39 0.52,2.11q0.51,0.72 1.48,0.72z" id="s_3"/>
  <path fill="#0000ff" d="m207.92,198.53334l-0.9,0l-0.24,-1.07l-0.05,0q-0.56,0.71 -1.12,0.96q-0.55,0.25 -1.4,0.25l0,0q-1.11,0 -1.74,-0.58q-0.63,-0.59 -0.63,-1.64l0,0q0,-2.29 3.61,-2.4l0,0l1.27,-0.05l0,-0.44q0,-0.85 -0.37,-1.26q-0.37,-0.41 -1.19,-0.41l0,0q-0.59,0 -1.12,0.18q-0.53,0.18 -0.99,0.4l0,0l-0.38,-0.93q0.57,-0.3 1.24,-0.47q0.67,-0.17 1.32,-0.17l0,0q1.36,0 2.03,0.6q0.66,0.6 0.66,1.92l0,0l0,5.11zm-3.43,-0.85l0,0q1.03,0 1.62,-0.56q0.59,-0.56 0.59,-1.58l0,0l0,-0.68l-1.1,0.05q-1.3,0.04 -1.89,0.41q-0.59,0.36 -0.59,1.14l0,0q0,0.59 0.36,0.9q0.36,0.32 1.01,0.32zm8.76,0.99l0,0q-1.62,0 -2.52,-1q-0.9,-0.99 -0.9,-2.85l0,0q0,-1.89 0.91,-2.91q0.91,-1.02 2.6,-1.02l0,0q0.55,0 1.08,0.11q0.54,0.11 0.89,0.29l0,0l-0.38,1.03q-0.95,-0.36 -1.62,-0.36l0,0q-1.13,0 -1.67,0.72q-0.54,0.71 -0.54,2.12l0,0q0,1.36 0.54,2.09q0.54,0.72 1.6,0.72l0,0q0.99,0 1.95,-0.44l0,0l0,1.09q-0.78,0.41 -1.94,0.41zm9.54,-5.55l-6.32,0l0,-1.02l6.32,0l0,1.02zm0,2.81l-6.32,0l0,-1.03l6.32,0l0,1.03zm-3.92,-6.11l0,0zm11.67,3.7l0,0q0,1.21 -0.17,2.17q-0.18,0.95 -0.57,1.62q-0.38,0.66 -0.99,1.01q-0.61,0.35 -1.48,0.35l0,0q-0.8,0 -1.4,-0.35q-0.6,-0.35 -0.99,-1.01q-0.4,-0.67 -0.59,-1.62q-0.19,-0.96 -0.19,-2.17l0,0q0,-1.21 0.17,-2.17q0.17,-0.95 0.55,-1.61q0.38,-0.66 0.99,-1.01q0.6,-0.35 1.46,-0.35l0,0q0.82,0 1.42,0.34q0.6,0.35 1,1.01q0.39,0.66 0.59,1.62q0.2,0.95 0.2,2.17zm-5.12,0l0,0q0,1.02 0.1,1.79q0.1,0.77 0.33,1.28q0.23,0.5 0.59,0.76q0.37,0.26 0.89,0.26l0,0q0.53,0 0.9,-0.26q0.37,-0.25 0.6,-0.75q0.24,-0.51 0.35,-1.28q0.1,-0.77 0.1,-1.8l0,0q0,-1.03 -0.1,-1.79q-0.11,-0.77 -0.35,-1.27q-0.23,-0.51 -0.6,-0.76q-0.37,-0.25 -0.9,-0.25l0,0q-0.52,0 -0.89,0.25q-0.36,0.25 -0.59,0.76q-0.23,0.5 -0.33,1.27q-0.1,0.76 -0.1,1.79zm6.78,4.25l0,0q0,-0.26 0.07,-0.44q0.07,-0.18 0.18,-0.29q0.12,-0.12 0.28,-0.17q0.15,-0.05 0.34,-0.05l0,0q0.18,0 0.34,0.05q0.16,0.05 0.27,0.17q0.12,0.11 0.19,0.29q0.07,0.18 0.07,0.44l0,0q0,0.25 -0.07,0.44q-0.07,0.18 -0.19,0.29q-0.11,0.12 -0.27,0.17q-0.16,0.06 -0.34,0.06l0,0q-0.19,0 -0.34,-0.06q-0.16,-0.05 -0.28,-0.17q-0.11,-0.11 -0.18,-0.29q-0.07,-0.19 -0.07,-0.44zm6.47,-5.37l0,0q0.68,0 1.27,0.19q0.58,0.18 1.01,0.55q0.44,0.37 0.68,0.92q0.25,0.55 0.25,1.26l0,0q0,0.78 -0.23,1.41q-0.23,0.62 -0.69,1.05q-0.46,0.43 -1.13,0.66q-0.68,0.23 -1.55,0.23l0,0q-0.35,0 -0.69,-0.04q-0.34,-0.03 -0.65,-0.1q-0.31,-0.06 -0.59,-0.16q-0.28,-0.11 -0.51,-0.24l0,0l0,-1.18q0.23,0.16 0.53,0.28q0.31,0.12 0.64,0.21q0.34,0.08 0.68,0.12q0.34,0.05 0.62,0.05l0,0q0.54,0 0.97,-0.13q0.42,-0.13 0.71,-0.39q0.3,-0.27 0.46,-0.67q0.15,-0.41 0.15,-0.96l0,0q0,-0.98 -0.6,-1.49q-0.6,-0.52 -1.75,-0.52l0,0q-0.18,0 -0.4,0.02q-0.21,0.02 -0.43,0.04q-0.22,0.03 -0.41,0.06q-0.19,0.03 -0.34,0.06l0,0l-0.61,-0.39l0.37,-4.7l4.72,0l0,1.13l-3.64,0l-0.26,2.86q0.21,-0.04 0.57,-0.08q0.36,-0.05 0.85,-0.05z" id="s_4"/>
  <path fill="#0000ff" d="m205.92,397.20001l-0.9,0l-0.24,-1.07l-0.05,0q-0.56,0.71 -1.12,0.96q-0.55,0.25 -1.4,0.25l0,0q-1.11,0 -1.74,-0.58q-0.63,-0.59 -0.63,-1.64l0,0q0,-2.29 3.61,-2.4l0,0l1.27,-0.05l0,-0.44q0,-0.85 -0.37,-1.26q-0.37,-0.41 -1.19,-0.41l0,0q-0.59,0 -1.12,0.18q-0.53,0.18 -0.99,0.4l0,0l-0.38,-0.93q0.57,-0.3 1.24,-0.47q0.67,-0.17 1.32,-0.17l0,0q1.36,0 2.03,0.6q0.66,0.6 0.66,1.92l0,0l0,5.11zm-3.43,-0.85l0,0q1.03,0 1.62,-0.56q0.59,-0.56 0.59,-1.58l0,0l0,-0.68l-1.1,0.05q-1.3,0.04 -1.89,0.41q-0.59,0.36 -0.59,1.14l0,0q0,0.59 0.36,0.9q0.36,0.32 1.01,0.32zm8.76,0.99l0,0q-1.62,0 -2.52,-1q-0.9,-0.99 -0.9,-2.85l0,0q0,-1.89 0.91,-2.91q0.91,-1.02 2.6,-1.02l0,0q0.55,0 1.08,0.11q0.54,0.11 0.89,0.29l0,0l-0.38,1.03q-0.95,-0.36 -1.62,-0.36l0,0q-1.13,0 -1.67,0.72q-0.54,0.71 -0.54,2.12l0,0q0,1.36 0.54,2.09q0.54,0.72 1.6,0.72l0,0q0.99,0 1.95,-0.44l0,0l0,1.09q-0.78,0.41 -1.94,0.41zm9.54,-5.55l-6.32,0l0,-1.02l6.32,0l0,1.02zm0,2.81l-6.32,0l0,-1.03l6.32,0l0,1.03zm-3.92,-6.11l0,0zm11.67,3.7l0,0q0,1.21 -0.17,2.17q-0.18,0.95 -0.57,1.62q-0.38,0.66 -0.99,1.01q-0.61,0.35 -1.48,0.35l0,0q-0.8,0 -1.4,-0.35q-0.6,-0.35 -0.99,-1.01q-0.4,-0.67 -0.59,-1.62q-0.19,-0.96 -0.19,-2.17l0,0q0,-1.21 0.17,-2.17q0.17,-0.95 0.55,-1.61q0.38,-0.66 0.99,-1.01q0.6,-0.35 1.46,-0.35l0,0q0.82,0 1.42,0.34q0.6,0.35 1,1.01q0.39,0.66 0.59,1.62q0.2,0.95 0.2,2.17zm-5.12,0l0,0q0,1.02 0.1,1.79q0.1,0.77 0.33,1.28q0.23,0.5 0.59,0.76q0.37,0.26 0.89,0.26l0,0q0.53,0 0.9,-0.26q0.37,-0.25 0.6,-0.75q0.24,-0.51 0.35,-1.28q0.1,-0.77 0.1,-1.8l0,0q0,-1.03 -0.1,-1.79q-0.11,-0.77 -0.35,-1.27q-0.23,-0.51 -0.6,-0.76q-0.37,-0.25 -0.9,-0.25l0,0q-0.52,0 -0.89,0.25q-0.36,0.25 -0.59,0.76q-0.23,0.5 -0.33,1.27q-0.1,0.76 -0.1,1.79zm6.78,4.25l0,0q0,-0.26 0.07,-0.44q0.07,-0.18 0.18,-0.29q0.12,-0.12 0.28,-0.17q0.15,-0.05 0.34,-0.05l0,0q0.18,0 0.34,0.05q0.16,0.05 0.27,0.17q0.12,0.11 0.19,0.29q0.07,0.18 0.07,0.44l0,0q0,0.25 -0.07,0.44q-0.07,0.18 -0.19,0.29q-0.11,0.12 -0.27,0.17q-0.16,0.06 -0.34,0.06l0,0q-0.19,0 -0.34,-0.06q-0.16,-0.05 -0.28,-0.17q-0.11,-0.11 -0.18,-0.29q-0.07,-0.19 -0.07,-0.44zm6.47,-5.37l0,0q0.68,0 1.27,0.19q0.58,0.18 1.01,0.55q0.44,0.37 0.68,0.92q0.25,0.55 0.25,1.26l0,0q0,0.78 -0.23,1.41q-0.23,0.62 -0.69,1.05q-0.46,0.43 -1.13,0.66q-0.68,0.23 -1.55,0.23l0,0q-0.35,0 -0.69,-0.04q-0.34,-0.03 -0.65,-0.1q-0.31,-0.06 -0.59,-0.16q-0.28,-0.11 -0.51,-0.24l0,0l0,-1.18q0.23,0.16 0.53,0.28q0.31,0.12 0.64,0.21q0.34,0.08 0.68,0.12q0.34,0.05 0.62,0.05l0,0q0.54,0 0.97,-0.13q0.42,-0.13 0.71,-0.39q0.3,-0.27 0.46,-0.67q0.15,-0.41 0.15,-0.96l0,0q0,-0.98 -0.6,-1.49q-0.6,-0.52 -1.75,-0.52l0,0q-0.18,0 -0.4,0.02q-0.21,0.02 -0.43,0.04q-0.22,0.03 -0.41,0.06q-0.19,0.03 -0.34,0.06l0,0l-0.61,-0.39l0.37,-4.7l4.72,0l0,1.13l-3.64,0l-0.26,2.86q0.21,-0.04 0.57,-0.08q0.36,-0.05 0.85,-0.05z" id="s_5"/>
  <path fill="#0000ff" d="m205.27334,216.00667l0,0q-1.51,0 -2.32,-1.09l0,0l-0.08,0l0.03,0.28q0.05,0.53 0.05,0.95l0,0l0,3.08l-1.23,0l0,-10.87l1.01,0l0.17,1.03l0.05,0q0.44,-0.62 1.01,-0.89q0.58,-0.27 1.33,-0.27l0,0q1.46,0 2.27,1.01q0.81,1.02 0.81,2.86l0,0q0,1.84 -0.81,2.87q-0.82,1.04 -2.29,1.04zm-0.2,-6.75l0,0q-1.12,0 -1.61,0.63q-0.5,0.63 -0.51,1.97l0,0l0,0.24q0,1.53 0.51,2.21q0.5,0.68 1.64,0.68l0,0q0.94,0 1.47,-0.77q0.53,-0.76 0.53,-2.13l0,0q0,-1.37 -0.53,-2.1q-0.53,-0.73 -1.5,-0.73zm11.59,6.61l-1.21,0l0,-4.8q0,-0.91 -0.41,-1.36q-0.41,-0.45 -1.28,-0.45l0,0q-1.14,0 -1.67,0.64q-0.53,0.63 -0.53,2.09l0,0l0,3.88l-1.23,0l0,-10.64l1.23,0l0,3.12q0,0.62 -0.07,1.05l0,0l0.09,0q0.33,-0.54 0.95,-0.85q0.61,-0.31 1.38,-0.31l0,0q1.37,0 2.06,0.65q0.69,0.66 0.69,2.09l0,0l0,4.89zm7.86,0l-0.9,0l-0.24,-1.07l-0.05,0q-0.56,0.71 -1.12,0.96q-0.56,0.25 -1.4,0.25l0,0q-1.11,0 -1.74,-0.58q-0.63,-0.59 -0.63,-1.64l0,0q0,-2.29 3.6,-2.4l0,0l1.27,-0.05l0,-0.44q0,-0.85 -0.36,-1.26q-0.37,-0.41 -1.19,-0.41l0,0q-0.59,0 -1.12,0.18q-0.53,0.18 -1,0.4l0,0l-0.37,-0.93q0.56,-0.3 1.23,-0.47q0.67,-0.17 1.33,-0.17l0,0q1.36,0 2.02,0.6q0.67,0.6 0.67,1.92l0,0l0,5.11zm-3.43,-0.85l0,0q1.03,0 1.62,-0.56q0.59,-0.56 0.59,-1.58l0,0l0,-0.68l-1.11,0.05q-1.29,0.04 -1.88,0.41q-0.59,0.36 -0.59,1.14l0,0q0,0.59 0.36,0.9q0.36,0.32 1.01,0.32zm10.64,-1.22l0,0q0,1.05 -0.79,1.63q-0.78,0.58 -2.2,0.58l0,0q-1.49,0 -2.36,-0.47l0,0l0,-1.13q1.23,0.61 2.38,0.61l0,0q0.93,0 1.36,-0.31q0.42,-0.3 0.42,-0.8l0,0q0,-0.45 -0.41,-0.75q-0.4,-0.31 -1.44,-0.71l0,0q-1.06,-0.41 -1.49,-0.7q-0.43,-0.29 -0.64,-0.65q-0.2,-0.36 -0.2,-0.88l0,0q0,-0.93 0.75,-1.46q0.76,-0.53 2.07,-0.53l0,0q1.28,0 2.39,0.5l0,0l-0.41,0.98q-1.15,-0.48 -2.06,-0.48l0,0q-0.77,0 -1.16,0.24q-0.4,0.25 -0.4,0.67l0,0q0,0.41 0.34,0.68q0.34,0.27 1.59,0.75l0,0q0.94,0.35 1.39,0.65q0.45,0.3 0.66,0.68q0.21,0.37 0.21,0.9zm5.01,2.21l0,0q-1.69,0 -2.65,-1.03q-0.96,-1.02 -0.96,-2.81l0,0q0,-1.8 0.9,-2.87q0.89,-1.07 2.42,-1.07l0,0q1.41,0 2.25,0.91q0.84,0.91 0.84,2.47l0,0l0,0.75l-5.14,0q0.04,1.27 0.65,1.94q0.62,0.66 1.74,0.66l0,0q0.61,0 1.15,-0.11q0.54,-0.1 1.26,-0.41l0,0l0,1.08q-0.62,0.27 -1.17,0.38q-0.54,0.11 -1.29,0.11zm-0.31,-6.78l0,0q-0.88,0 -1.39,0.57q-0.51,0.57 -0.61,1.58l0,0l3.82,0q-0.01,-1.05 -0.48,-1.6q-0.48,-0.55 -1.34,-0.55zm10.84,1.23l-6.32,0l0,-1.02l6.32,0l0,1.02zm0,2.81l-6.32,0l0,-1.03l6.32,0l0,1.03zm-3.92,-6.11l0,0zm9.47,-1.28l0,9.99l-1.2,0l0,-6.24q0,-0.3 0.01,-0.63q0,-0.34 0.01,-0.67q0.01,-0.33 0.02,-0.63q0.01,-0.31 0.02,-0.54l0,0q-0.12,0.12 -0.21,0.21q-0.09,0.09 -0.18,0.17q-0.09,0.09 -0.19,0.18q-0.11,0.09 -0.25,0.21l0,0l-1.01,0.83l-0.66,-0.84l2.62,-2.04l1.02,0zm6.72,-0.16l0,0q0.57,0 1.08,0.15q0.51,0.15 0.9,0.45q0.38,0.3 0.61,0.75q0.22,0.45 0.22,1.05l0,0q0,0.46 -0.13,0.83q-0.14,0.37 -0.38,0.67q-0.24,0.3 -0.57,0.53q-0.32,0.24 -0.71,0.43l0,0q0.4,0.21 0.78,0.47q0.38,0.26 0.68,0.59q0.29,0.32 0.47,0.72q0.19,0.41 0.19,0.91l0,0q0,0.62 -0.23,1.13q-0.23,0.51 -0.65,0.87q-0.41,0.35 -0.99,0.55q-0.57,0.19 -1.27,0.19l0,0q-0.75,0 -1.34,-0.19q-0.58,-0.18 -0.98,-0.53q-0.4,-0.34 -0.61,-0.84q-0.21,-0.5 -0.21,-1.13l0,0q0,-0.51 0.15,-0.92q0.16,-0.41 0.42,-0.74q0.26,-0.33 0.61,-0.58q0.36,-0.25 0.75,-0.45l0,0q-0.33,-0.21 -0.62,-0.46q-0.3,-0.25 -0.51,-0.55q-0.22,-0.31 -0.35,-0.69q-0.12,-0.37 -0.12,-0.82l0,0q0,-0.59 0.23,-1.04q0.23,-0.45 0.62,-0.75q0.39,-0.3 0.89,-0.45q0.51,-0.15 1.07,-0.15zm-1.92,7.61l0,0q0,0.37 0.11,0.67q0.11,0.3 0.34,0.52q0.24,0.22 0.59,0.33q0.36,0.12 0.85,0.12l0,0q0.48,0 0.84,-0.12q0.37,-0.11 0.62,-0.34q0.24,-0.22 0.37,-0.53q0.12,-0.32 0.12,-0.7l0,0q0,-0.36 -0.13,-0.64q-0.14,-0.29 -0.39,-0.54q-0.25,-0.24 -0.6,-0.46q-0.34,-0.22 -0.77,-0.43l0,0l-0.21,-0.1q-0.86,0.41 -1.3,0.94q-0.44,0.53 -0.44,1.28zm1.9,-6.57l0,0q-0.72,0 -1.15,0.36q-0.42,0.36 -0.42,1.05l0,0q0,0.39 0.11,0.67q0.12,0.28 0.34,0.5q0.21,0.22 0.51,0.39q0.29,0.18 0.64,0.34l0,0q0.33,-0.15 0.62,-0.33q0.29,-0.17 0.51,-0.4q0.21,-0.22 0.33,-0.51q0.13,-0.29 0.13,-0.66l0,0q0,-0.69 -0.43,-1.05q-0.43,-0.36 -1.19,-0.36zm2.77,4.35l0,0zm8.15,-0.25l0,0q0,1.21 -0.17,2.17q-0.18,0.95 -0.56,1.62q-0.39,0.66 -1,1.01q-0.61,0.35 -1.47,0.35l0,0q-0.81,0 -1.41,-0.35q-0.6,-0.35 -0.99,-1.01q-0.39,-0.67 -0.59,-1.62q-0.19,-0.96 -0.19,-2.17l0,0q0,-1.21 0.17,-2.17q0.18,-0.95 0.55,-1.61q0.38,-0.66 0.99,-1.01q0.6,-0.35 1.47,-0.35l0,0q0.81,0 1.41,0.34q0.6,0.35 1,1.01q0.39,0.66 0.59,1.62q0.2,0.95 0.2,2.17zm-5.12,0l0,0q0,1.02 0.1,1.79q0.11,0.77 0.33,1.28q0.23,0.5 0.59,0.76q0.37,0.26 0.9,0.26l0,0q0.52,0 0.89,-0.26q0.37,-0.25 0.61,-0.75q0.23,-0.51 0.34,-1.28q0.1,-0.77 0.1,-1.8l0,0q0,-1.03 -0.1,-1.79q-0.11,-0.77 -0.34,-1.27q-0.24,-0.51 -0.61,-0.76q-0.37,-0.25 -0.89,-0.25l0,0q-0.53,0 -0.9,0.25q-0.36,0.25 -0.59,0.76q-0.22,0.5 -0.33,1.27q-0.1,0.76 -0.1,1.79z" id="s_6"/>
  <path fill="#0000ff" d="m205.27334,413.34001l0,0q-1.51,0 -2.32,-1.09l0,0l-0.08,0l0.03,0.28q0.05,0.53 0.05,0.95l0,0l0,3.08l-1.23,0l0,-10.87l1.01,0l0.17,1.03l0.05,0q0.44,-0.62 1.01,-0.89q0.58,-0.27 1.33,-0.27l0,0q1.46,0 2.27,1.01q0.81,1.02 0.81,2.86l0,0q0,1.84 -0.81,2.87q-0.82,1.04 -2.29,1.04zm-0.2,-6.75l0,0q-1.12,0 -1.61,0.63q-0.5,0.63 -0.51,1.97l0,0l0,0.24q0,1.53 0.51,2.21q0.5,0.68 1.64,0.68l0,0q0.94,0 1.47,-0.77q0.53,-0.76 0.53,-2.13l0,0q0,-1.37 -0.53,-2.1q-0.53,-0.73 -1.5,-0.73zm11.59,6.61l-1.21,0l0,-4.8q0,-0.91 -0.41,-1.36q-0.41,-0.45 -1.28,-0.45l0,0q-1.14,0 -1.67,0.64q-0.53,0.63 -0.53,2.09l0,0l0,3.88l-1.23,0l0,-10.64l1.23,0l0,3.12q0,0.62 -0.07,1.05l0,0l0.09,0q0.33,-0.54 0.95,-0.85q0.61,-0.31 1.38,-0.31l0,0q1.37,0 2.06,0.65q0.69,0.66 0.69,2.09l0,0l0,4.89zm7.86,0l-0.9,0l-0.24,-1.07l-0.05,0q-0.56,0.71 -1.12,0.96q-0.56,0.25 -1.4,0.25l0,0q-1.11,0 -1.74,-0.58q-0.63,-0.59 -0.63,-1.64l0,0q0,-2.29 3.6,-2.4l0,0l1.27,-0.05l0,-0.44q0,-0.85 -0.36,-1.26q-0.37,-0.41 -1.19,-0.41l0,0q-0.59,0 -1.12,0.18q-0.53,0.18 -1,0.4l0,0l-0.37,-0.93q0.56,-0.3 1.23,-0.47q0.67,-0.17 1.33,-0.17l0,0q1.36,0 2.02,0.6q0.67,0.6 0.67,1.92l0,0l0,5.11zm-3.43,-0.85l0,0q1.03,0 1.62,-0.56q0.59,-0.56 0.59,-1.58l0,0l0,-0.68l-1.11,0.05q-1.29,0.04 -1.88,0.41q-0.59,0.36 -0.59,1.14l0,0q0,0.59 0.36,0.9q0.36,0.32 1.01,0.32zm10.64,-1.22l0,0q0,1.05 -0.79,1.63q-0.78,0.58 -2.2,0.58l0,0q-1.49,0 -2.36,-0.47l0,0l0,-1.13q1.23,0.61 2.38,0.61l0,0q0.93,0 1.36,-0.31q0.42,-0.3 0.42,-0.8l0,0q0,-0.45 -0.41,-0.75q-0.4,-0.31 -1.44,-0.71l0,0q-1.06,-0.41 -1.49,-0.7q-0.43,-0.29 -0.64,-0.65q-0.2,-0.36 -0.2,-0.88l0,0q0,-0.93 0.75,-1.46q0.76,-0.53 2.07,-0.53l0,0q1.28,0 2.39,0.5l0,0l-0.41,0.98q-1.15,-0.48 -2.06,-0.48l0,0q-0.77,0 -1.16,0.24q-0.4,0.25 -0.4,0.67l0,0q0,0.41 0.34,0.68q0.34,0.27 1.59,0.75l0,0q0.94,0.35 1.39,0.65q0.45,0.3 0.66,0.68q0.21,0.37 0.21,0.9zm5.01,2.21l0,0q-1.69,0 -2.65,-1.03q-0.96,-1.02 -0.96,-2.81l0,0q0,-1.8 0.9,-2.87q0.89,-1.07 2.42,-1.07l0,0q1.41,0 2.25,0.91q0.84,0.91 0.84,2.47l0,0l0,0.75l-5.14,0q0.04,1.27 0.65,1.94q0.62,0.66 1.74,0.66l0,0q0.61,0 1.15,-0.11q0.54,-0.1 1.26,-0.41l0,0l0,1.08q-0.62,0.27 -1.17,0.38q-0.54,0.11 -1.29,0.11zm-0.31,-6.78l0,0q-0.88,0 -1.39,0.57q-0.51,0.57 -0.61,1.58l0,0l3.82,0q-0.01,-1.05 -0.48,-1.6q-0.48,-0.55 -1.34,-0.55zm10.84,1.23l-6.32,0l0,-1.02l6.32,0l0,1.02zm0,2.81l-6.32,0l0,-1.03l6.32,0l0,1.03zm-3.92,-6.11l0,0zm8.69,5.13l-3.39,0l0,-1.15l3.39,0l0,1.15zm-0.98,-5.13l0,0zm6.52,-1.28l0,9.99l-1.2,0l0,-6.24q0,-0.3 0,-0.63q0.01,-0.34 0.02,-0.67q0.01,-0.33 0.02,-0.63q0.01,-0.31 0.01,-0.54l0,0q-0.11,0.12 -0.2,0.21q-0.09,0.09 -0.18,0.17q-0.09,0.09 -0.2,0.18q-0.1,0.09 -0.24,0.21l0,0l-1.01,0.83l-0.66,-0.84l2.62,-2.04l1.02,0zm6.72,-0.16l0,0q0.57,0 1.08,0.15q0.51,0.15 0.89,0.45q0.39,0.3 0.62,0.75q0.22,0.45 0.22,1.05l0,0q0,0.46 -0.13,0.83q-0.14,0.37 -0.38,0.67q-0.24,0.3 -0.57,0.53q-0.33,0.24 -0.71,0.43l0,0q0.4,0.21 0.78,0.47q0.38,0.26 0.67,0.59q0.3,0.32 0.48,0.72q0.18,0.41 0.18,0.91l0,0q0,0.62 -0.23,1.13q-0.22,0.51 -0.64,0.87q-0.41,0.35 -0.99,0.55q-0.58,0.19 -1.27,0.19l0,0q-0.76,0 -1.34,-0.19q-0.59,-0.18 -0.99,-0.53q-0.4,-0.34 -0.6,-0.84q-0.21,-0.5 -0.21,-1.13l0,0q0,-0.51 0.15,-0.92q0.16,-0.41 0.42,-0.74q0.26,-0.33 0.61,-0.58q0.36,-0.25 0.75,-0.45l0,0q-0.33,-0.21 -0.63,-0.46q-0.29,-0.25 -0.51,-0.55q-0.21,-0.31 -0.34,-0.69q-0.12,-0.37 -0.12,-0.82l0,0q0,-0.59 0.23,-1.04q0.22,-0.45 0.61,-0.75q0.39,-0.3 0.9,-0.45q0.51,-0.15 1.07,-0.15zm-1.92,7.61l0,0q0,0.37 0.11,0.67q0.11,0.3 0.34,0.52q0.24,0.22 0.59,0.33q0.36,0.12 0.85,0.12l0,0q0.48,0 0.84,-0.12q0.37,-0.11 0.61,-0.34q0.25,-0.22 0.37,-0.53q0.13,-0.32 0.13,-0.7l0,0q0,-0.36 -0.14,-0.64q-0.13,-0.29 -0.38,-0.54q-0.25,-0.24 -0.6,-0.46q-0.35,-0.22 -0.78,-0.43l0,0l-0.2,-0.1q-0.86,0.41 -1.3,0.94q-0.44,0.53 -0.44,1.28zm1.9,-6.57l0,0q-0.72,0 -1.15,0.36q-0.43,0.36 -0.43,1.05l0,0q0,0.39 0.12,0.67q0.12,0.28 0.33,0.5q0.22,0.22 0.51,0.39q0.3,0.18 0.65,0.34l0,0q0.33,-0.15 0.62,-0.33q0.29,-0.17 0.5,-0.4q0.22,-0.22 0.34,-0.51q0.13,-0.29 0.13,-0.66l0,0q0,-0.69 -0.44,-1.05q-0.43,-0.36 -1.18,-0.36zm2.76,4.35l0,0zm8.16,-0.25l0,0q0,1.21 -0.18,2.17q-0.17,0.95 -0.56,1.62q-0.38,0.66 -0.99,1.01q-0.61,0.35 -1.48,0.35l0,0q-0.8,0 -1.4,-0.35q-0.6,-0.35 -0.99,-1.01q-0.4,-0.67 -0.59,-1.62q-0.2,-0.96 -0.2,-2.17l0,0q0,-1.21 0.18,-2.17q0.17,-0.95 0.55,-1.61q0.38,-0.66 0.99,-1.01q0.6,-0.35 1.46,-0.35l0,0q0.82,0 1.42,0.34q0.6,0.35 1,1.01q0.39,0.66 0.59,1.62q0.2,0.95 0.2,2.17zm-5.12,0l0,0q0,1.02 0.1,1.79q0.1,0.77 0.33,1.28q0.23,0.5 0.59,0.76q0.37,0.26 0.89,0.26l0,0q0.53,0 0.9,-0.26q0.37,-0.25 0.6,-0.75q0.24,-0.51 0.35,-1.28q0.1,-0.77 0.1,-1.8l0,0q0,-1.03 -0.1,-1.79q-0.11,-0.77 -0.35,-1.27q-0.23,-0.51 -0.6,-0.76q-0.37,-0.25 -0.9,-0.25l0,0q-0.52,0 -0.89,0.25q-0.36,0.25 -0.59,0.76q-0.23,0.5 -0.33,1.27q-0.1,0.76 -0.1,1.79z" id="s_7"/>
  <path fill="#0000ff" d="m49.58333,401.52333l0,0q0,1.21 -0.17,2.17q-0.17,0.95 -0.56,1.62q-0.39,0.66 -0.99,1.01q-0.61,0.35 -1.48,0.35l0,0q-0.81,0 -1.41,-0.35q-0.59,-0.35 -0.99,-1.01q-0.39,-0.67 -0.59,-1.62q-0.19,-0.96 -0.19,-2.17l0,0q0,-1.21 0.17,-2.17q0.18,-0.95 0.56,-1.61q0.38,-0.66 0.98,-1.01q0.61,-0.35 1.47,-0.35l0,0q0.81,0 1.41,0.34q0.61,0.35 1,1.01q0.4,0.66 0.6,1.62q0.19,0.95 0.19,2.17zm-5.12,0l0,0q0,1.02 0.11,1.79q0.1,0.77 0.33,1.28q0.22,0.5 0.59,0.76q0.36,0.26 0.89,0.26l0,0q0.53,0 0.89,-0.26q0.37,-0.25 0.61,-0.75q0.23,-0.51 0.34,-1.28q0.11,-0.77 0.11,-1.8l0,0q0,-1.03 -0.11,-1.79q-0.11,-0.77 -0.34,-1.27q-0.24,-0.51 -0.61,-0.76q-0.36,-0.25 -0.89,-0.25l0,0q-0.53,0 -0.89,0.25q-0.37,0.25 -0.59,0.76q-0.23,0.5 -0.33,1.27q-0.11,0.76 -0.11,1.79zm6.79,4.25l0,0q0,-0.26 0.06,-0.44q0.07,-0.18 0.19,-0.29q0.11,-0.12 0.27,-0.17q0.16,-0.05 0.34,-0.05l0,0q0.18,0 0.34,0.05q0.16,0.05 0.28,0.17q0.12,0.11 0.18,0.29q0.07,0.18 0.07,0.44l0,0q0,0.25 -0.07,0.44q-0.06,0.18 -0.18,0.29q-0.12,0.12 -0.28,0.17q-0.16,0.06 -0.34,0.06l0,0q-0.18,0 -0.34,-0.06q-0.16,-0.05 -0.27,-0.17q-0.12,-0.11 -0.19,-0.29q-0.06,-0.19 -0.06,-0.44zm5.99,0.76l-1.33,0l3.85,-8.86l-5.15,0l0,-1.13l6.42,0l0,0.99l-3.79,9zm8.19,-6.13l0,0q0.68,0 1.26,0.19q0.59,0.18 1.02,0.55q0.43,0.37 0.68,0.92q0.25,0.55 0.25,1.26l0,0q0,0.78 -0.24,1.41q-0.23,0.62 -0.69,1.05q-0.45,0.43 -1.13,0.66q-0.67,0.23 -1.55,0.23l0,0q-0.34,0 -0.68,-0.04q-0.34,-0.03 -0.65,-0.1q-0.31,-0.06 -0.59,-0.16q-0.28,-0.11 -0.51,-0.24l0,0l0,-1.18q0.23,0.16 0.53,0.28q0.3,0.12 0.64,0.21q0.33,0.08 0.67,0.12q0.34,0.05 0.63,0.05l0,0q0.54,0 0.96,-0.13q0.43,-0.13 0.72,-0.39q0.29,-0.27 0.45,-0.67q0.16,-0.41 0.16,-0.96l0,0q0,-0.98 -0.6,-1.49q-0.6,-0.52 -1.75,-0.52l0,0q-0.19,0 -0.4,0.02q-0.22,0.02 -0.43,0.04q-0.22,0.03 -0.41,0.06q-0.2,0.03 -0.34,0.06l0,0l-0.62,-0.39l0.38,-4.7l4.72,0l0,1.13l-3.64,0l-0.27,2.86q0.22,-0.04 0.58,-0.08q0.36,-0.05 0.85,-0.05zm7.55,6.13l-3.56,-9.99l1.32,0l2.24,6.41q0.43,1.21 0.63,2.18l0,0q0.17,-0.86 0.64,-2.21l0,0l2.23,-6.38l1.34,0l-3.57,9.99l-1.27,0z" id="s_8"/>
  <path fill="#0000ff" d="m578.84001,265.50333l0,0q-1.61,0 -2.54,1.08q-0.92,1.08 -0.92,2.95l0,0q0,1.94 0.9,2.99q0.89,1.05 2.55,1.05l0,0q1.06,0 2.4,-0.4l0,0l0,1.09q-0.64,0.24 -1.23,0.32q-0.59,0.09 -1.35,0.09l0,0q-2.21,0 -3.4,-1.35q-1.2,-1.34 -1.2,-3.8l0,0q0,-1.55 0.58,-2.71q0.57,-1.16 1.66,-1.79q1.09,-0.63 2.56,-0.63l0,0q1.59,0 2.77,0.59l0,0l-0.51,1.07q-1.2,-0.55 -2.27,-0.55zm10.19,9.03l-5.62,0l0,-9.99l1.25,0l0,8.87l4.37,0l0,1.12zm5.21,-9.99l0,9.99l-1.2,0l0,-6.24q0,-0.3 0,-0.63q0,-0.34 0.01,-0.67q0.02,-0.33 0.03,-0.63q0.01,-0.31 0.01,-0.54l0,0q-0.11,0.12 -0.2,0.21q-0.09,0.09 -0.18,0.17q-0.1,0.09 -0.2,0.18q-0.1,0.09 -0.24,0.21l0,0l-1.02,0.83l-0.65,-0.84l2.62,-2.04l1.02,0zm9.87,4.58l-6.32,0l0,-1.02l6.32,0l0,1.02zm0,2.81l-6.32,0l0,-1.03l6.32,0l0,1.03zm-3.92,-6.11l0,0zm8.34,2.58l0,0q0.67,0 1.26,0.19q0.58,0.18 1.02,0.55q0.43,0.37 0.68,0.92q0.24,0.55 0.24,1.26l0,0q0,0.78 -0.23,1.41q-0.23,0.62 -0.69,1.05q-0.46,0.43 -1.13,0.66q-0.67,0.23 -1.55,0.23l0,0q-0.35,0 -0.69,-0.04q-0.33,-0.03 -0.64,-0.1q-0.32,-0.06 -0.6,-0.16q-0.28,-0.11 -0.5,-0.24l0,0l0,-1.18q0.22,0.16 0.53,0.28q0.3,0.12 0.64,0.21q0.33,0.08 0.67,0.12q0.34,0.05 0.63,0.05l0,0q0.54,0 0.96,-0.13q0.42,-0.13 0.72,-0.39q0.29,-0.27 0.45,-0.67q0.16,-0.41 0.16,-0.96l0,0q0,-0.98 -0.61,-1.49q-0.6,-0.52 -1.75,-0.52l0,0q-0.18,0 -0.4,0.02q-0.21,0.02 -0.43,0.04q-0.21,0.03 -0.41,0.06q-0.19,0.03 -0.33,0.06l0,0l-0.62,-0.39l0.38,-4.7l4.71,0l0,1.13l-3.63,0l-0.27,2.86q0.22,-0.04 0.58,-0.08q0.36,-0.05 0.85,-0.05zm8.73,6.27l0,0q-1.51,0 -2.33,-1.09l0,0l-0.08,0l0.03,0.28q0.05,0.53 0.05,0.95l0,0l0,3.08l-1.23,0l0,-10.87l1.01,0l0.17,1.03l0.05,0q0.44,-0.62 1.02,-0.89q0.57,-0.27 1.32,-0.27l0,0q1.46,0 2.27,1.01q0.81,1.02 0.81,2.86l0,0q0,1.84 -0.81,2.87q-0.81,1.04 -2.28,1.04zm-0.21,-6.75l0,0q-1.11,0 -1.61,0.63q-0.49,0.63 -0.51,1.97l0,0l0,0.24q0,1.53 0.51,2.21q0.51,0.68 1.64,0.68l0,0q0.94,0 1.47,-0.77q0.53,-0.76 0.53,-2.13l0,0q0,-1.37 -0.53,-2.1q-0.53,-0.73 -1.5,-0.73zm6.69,2.36l0,4.25l-1.25,0l0,-9.99l5.58,0l0,1.1l-4.33,0l0,3.54l4.07,0l0,1.1l-4.07,0z" id="s_9"/>
  <path fill="#0000ff" d="m579.50664,424.83667l0,0q-1.61,0 -2.54,1.08q-0.92,1.08 -0.92,2.95l0,0q0,1.94 0.9,2.99q0.89,1.05 2.55,1.05l0,0q1.06,0 2.4,-0.4l0,0l0,1.09q-0.64,0.24 -1.23,0.32q-0.59,0.09 -1.35,0.09l0,0q-2.21,0 -3.4,-1.35q-1.2,-1.34 -1.2,-3.8l0,0q0,-1.55 0.58,-2.71q0.57,-1.16 1.66,-1.79q1.09,-0.63 2.56,-0.63l0,0q1.59,0 2.77,0.59l0,0l-0.51,1.07q-1.2,-0.55 -2.27,-0.55zm10.19,9.03l-5.62,0l0,-9.99l1.25,0l0,8.87l4.37,0l0,1.12zm7.24,-1.13l0,1.13l-6.23,0l0,-1.07l2.39,-2.6q0.51,-0.55 0.92,-1.01q0.4,-0.46 0.68,-0.9q0.29,-0.44 0.44,-0.88q0.15,-0.44 0.15,-0.96l0,0q0,-0.4 -0.12,-0.71q-0.12,-0.31 -0.33,-0.52q-0.22,-0.22 -0.51,-0.33q-0.29,-0.1 -0.66,-0.1l0,0q-0.65,0 -1.17,0.26q-0.52,0.26 -0.99,0.67l0,0l-0.7,-0.81q0.27,-0.25 0.59,-0.46q0.31,-0.22 0.67,-0.38q0.37,-0.15 0.77,-0.25q0.4,-0.09 0.85,-0.09l0,0q0.65,0 1.18,0.19q0.53,0.18 0.9,0.53q0.37,0.34 0.57,0.84q0.2,0.49 0.2,1.12l0,0q0,0.58 -0.18,1.1q-0.18,0.53 -0.5,1.04q-0.31,0.51 -0.75,1.02q-0.45,0.51 -0.96,1.07l0,0l-1.92,2.04l0,0.06l4.71,0zm7.84,-4.28l-6.32,0l0,-1.02l6.32,0l0,1.02zm0,2.81l-6.32,0l0,-1.03l6.32,0l0,1.03zm-3.92,-6.11l0,0zm8.34,2.58l0,0q0.67,0 1.26,0.19q0.58,0.18 1.02,0.55q0.43,0.37 0.68,0.92q0.24,0.55 0.24,1.26l0,0q0,0.78 -0.23,1.41q-0.23,0.62 -0.69,1.05q-0.46,0.43 -1.13,0.66q-0.67,0.23 -1.55,0.23l0,0q-0.35,0 -0.69,-0.04q-0.33,-0.03 -0.64,-0.1q-0.32,-0.06 -0.6,-0.16q-0.28,-0.11 -0.5,-0.24l0,0l0,-1.18q0.22,0.16 0.53,0.28q0.3,0.12 0.64,0.21q0.33,0.08 0.67,0.12q0.34,0.05 0.63,0.05l0,0q0.54,0 0.96,-0.13q0.42,-0.13 0.72,-0.39q0.29,-0.27 0.45,-0.67q0.16,-0.41 0.16,-0.96l0,0q0,-0.98 -0.61,-1.49q-0.6,-0.52 -1.75,-0.52l0,0q-0.18,0 -0.4,0.02q-0.21,0.02 -0.43,0.04q-0.21,0.03 -0.41,0.06q-0.19,0.03 -0.33,0.06l0,0l-0.62,-0.39l0.38,-4.7l4.71,0l0,1.13l-3.63,0l-0.27,2.86q0.22,-0.04 0.58,-0.08q0.36,-0.05 0.85,-0.05zm8.73,6.27l0,0q-1.51,0 -2.33,-1.09l0,0l-0.08,0l0.03,0.28q0.05,0.53 0.05,0.95l0,0l0,3.08l-1.23,0l0,-10.87l1.01,0l0.17,1.03l0.05,0q0.44,-0.62 1.02,-0.89q0.57,-0.27 1.32,-0.27l0,0q1.46,0 2.27,1.01q0.81,1.02 0.81,2.86l0,0q0,1.84 -0.81,2.87q-0.81,1.04 -2.28,1.04zm-0.21,-6.75l0,0q-1.11,0 -1.61,0.63q-0.49,0.63 -0.51,1.97l0,0l0,0.24q0,1.53 0.51,2.21q0.51,0.68 1.64,0.68l0,0q0.94,0 1.47,-0.77q0.53,-0.76 0.53,-2.13l0,0q0,-1.37 -0.53,-2.1q-0.53,-0.73 -1.5,-0.73zm6.69,2.36l0,4.25l-1.25,0l0,-9.99l5.58,0l0,1.1l-4.33,0l0,3.54l4.07,0l0,1.1l-4.07,0z" id="s_10"/>
  <path fill="#0000ff" d="m662.48664,425.62333l0,3.71l1.5,0q1.21,0 1.77,-0.47q0.56,-0.48 0.56,-1.43l0,0q0,-0.94 -0.56,-1.37q-0.57,-0.44 -1.84,-0.44l0,0l-1.43,0zm1.99,4.78l-1.99,0l0,4.13l-1.26,0l0,-9.99l2.76,0q1.85,0 2.75,0.7q0.89,0.71 0.89,2.13l0,0q0,1.99 -2,2.68l0,0l2.74,4.48l-1.47,0l-2.42,-4.13zm11.09,4.13l-5.63,0l0,-9.99l1.26,0l0,8.87l4.37,0l0,1.12zm7.23,-1.13l0,1.13l-6.23,0l0,-1.07l2.39,-2.6q0.52,-0.55 0.92,-1.01q0.4,-0.46 0.69,-0.9q0.28,-0.44 0.43,-0.88q0.15,-0.44 0.15,-0.96l0,0q0,-0.4 -0.12,-0.71q-0.11,-0.31 -0.33,-0.52q-0.21,-0.22 -0.51,-0.33q-0.29,-0.1 -0.65,-0.1l0,0q-0.65,0 -1.18,0.26q-0.52,0.26 -0.99,0.67l0,0l-0.7,-0.81q0.28,-0.25 0.59,-0.46q0.32,-0.22 0.68,-0.38q0.36,-0.15 0.76,-0.25q0.41,-0.09 0.85,-0.09l0,0q0.66,0 1.19,0.19q0.53,0.18 0.9,0.53q0.36,0.34 0.57,0.84q0.2,0.49 0.2,1.12l0,0q0,0.58 -0.18,1.1q-0.18,0.53 -0.5,1.04q-0.32,0.51 -0.76,1.02q-0.44,0.51 -0.95,1.07l0,0l-1.93,2.04l0,0.06l4.71,0zm7.84,-4.28l-6.32,0l0,-1.02l6.32,0l0,1.02zm0,2.81l-6.32,0l0,-1.03l6.32,0l0,1.03zm-3.92,-6.11l0,0zm11.51,7.58l0,1.13l-6.24,0l0,-1.07l2.39,-2.6q0.52,-0.55 0.92,-1.01q0.4,-0.46 0.69,-0.9q0.28,-0.44 0.43,-0.88q0.15,-0.44 0.15,-0.96l0,0q0,-0.4 -0.11,-0.71q-0.12,-0.31 -0.34,-0.52q-0.21,-0.22 -0.5,-0.33q-0.3,-0.1 -0.66,-0.1l0,0q-0.65,0 -1.17,0.26q-0.53,0.26 -1,0.67l0,0l-0.7,-0.81q0.28,-0.25 0.59,-0.46q0.32,-0.22 0.68,-0.38q0.36,-0.15 0.76,-0.25q0.41,-0.09 0.85,-0.09l0,0q0.66,0 1.19,0.19q0.53,0.18 0.9,0.53q0.37,0.34 0.57,0.84q0.2,0.49 0.2,1.12l0,0q0,0.58 -0.18,1.1q-0.18,0.53 -0.5,1.04q-0.32,0.51 -0.76,1.02q-0.44,0.51 -0.95,1.07l0,0l-1.92,2.04l0,0.06l4.71,0zm4.54,-5l0,0q0.68,0 1.26,0.19q0.59,0.18 1.02,0.55q0.44,0.37 0.68,0.92q0.25,0.55 0.25,1.26l0,0q0,0.78 -0.23,1.41q-0.24,0.62 -0.69,1.05q-0.46,0.43 -1.14,0.66q-0.67,0.23 -1.54,0.23l0,0q-0.35,0 -0.69,-0.04q-0.34,-0.03 -0.65,-0.1q-0.31,-0.06 -0.59,-0.16q-0.28,-0.11 -0.51,-0.24l0,0l0,-1.18q0.23,0.16 0.53,0.28q0.31,0.12 0.64,0.21q0.34,0.08 0.67,0.12q0.34,0.05 0.63,0.05l0,0q0.54,0 0.96,-0.13q0.43,-0.13 0.72,-0.39q0.3,-0.27 0.45,-0.67q0.16,-0.41 0.16,-0.96l0,0q0,-0.98 -0.6,-1.49q-0.6,-0.52 -1.75,-0.52l0,0q-0.19,0 -0.4,0.02q-0.22,0.02 -0.43,0.04q-0.22,0.03 -0.41,0.06q-0.2,0.03 -0.34,0.06l0,0l-0.62,-0.39l0.38,-4.7l4.72,0l0,1.13l-3.64,0l-0.27,2.86q0.22,-0.04 0.58,-0.08q0.36,-0.05 0.85,-0.05zm8.54,0.49l4.12,5.64l-1.49,0l-3.55,-4.77l-1.01,0.89l0,3.88l-1.26,0l0,-9.99l1.26,0l0,4.92l0.86,-0.95l3.56,-3.97l1.47,0l-3.96,4.35z" id="s_11"/>
  <path fill="#0000ff" d="m661.15333,266.95667l0,3.71l1.5,0q1.21,0 1.77,-0.47q0.56,-0.48 0.56,-1.43l0,0q0,-0.94 -0.56,-1.37q-0.57,-0.44 -1.84,-0.44l0,0l-1.43,0zm1.99,4.78l-1.99,0l0,4.13l-1.26,0l0,-9.99l2.76,0q1.85,0 2.75,0.7q0.89,0.71 0.89,2.13l0,0q0,1.99 -2,2.68l0,0l2.74,4.48l-1.47,0l-2.42,-4.13zm11.09,4.13l-5.63,0l0,-9.99l1.26,0l0,8.87l4.37,0l0,1.12zm5.2,-9.99l0,9.99l-1.2,0l0,-6.24q0,-0.3 0,-0.63q0.01,-0.34 0.02,-0.67q0.01,-0.33 0.02,-0.63q0.01,-0.31 0.02,-0.54l0,0q-0.12,0.12 -0.21,0.21q-0.09,0.09 -0.18,0.17q-0.09,0.09 -0.2,0.18q-0.1,0.09 -0.24,0.21l0,0l-1.01,0.83l-0.66,-0.84l2.62,-2.04l1.02,0zm9.87,4.58l-6.32,0l0,-1.02l6.32,0l0,1.02zm0,2.81l-6.32,0l0,-1.03l6.32,0l0,1.03zm-3.92,-6.11l0,0zm11.51,7.58l0,1.13l-6.24,0l0,-1.07l2.39,-2.6q0.52,-0.55 0.92,-1.01q0.4,-0.46 0.69,-0.9q0.28,-0.44 0.43,-0.88q0.15,-0.44 0.15,-0.96l0,0q0,-0.4 -0.11,-0.71q-0.12,-0.31 -0.34,-0.52q-0.21,-0.22 -0.5,-0.33q-0.3,-0.1 -0.66,-0.1l0,0q-0.65,0 -1.17,0.26q-0.53,0.26 -1,0.67l0,0l-0.7,-0.81q0.28,-0.25 0.59,-0.46q0.32,-0.22 0.68,-0.38q0.36,-0.15 0.76,-0.25q0.41,-0.09 0.85,-0.09l0,0q0.66,0 1.19,0.19q0.53,0.18 0.9,0.53q0.37,0.34 0.57,0.84q0.2,0.49 0.2,1.12l0,0q0,0.58 -0.18,1.1q-0.18,0.53 -0.5,1.04q-0.32,0.51 -0.76,1.02q-0.44,0.51 -0.95,1.07l0,0l-1.92,2.04l0,0.06l4.71,0zm4.54,-5l0,0q0.68,0 1.26,0.19q0.59,0.18 1.02,0.55q0.44,0.37 0.68,0.92q0.25,0.55 0.25,1.26l0,0q0,0.78 -0.23,1.41q-0.24,0.62 -0.69,1.05q-0.46,0.43 -1.14,0.66q-0.67,0.23 -1.54,0.23l0,0q-0.35,0 -0.69,-0.04q-0.34,-0.03 -0.65,-0.1q-0.31,-0.06 -0.59,-0.16q-0.28,-0.11 -0.51,-0.24l0,0l0,-1.18q0.23,0.16 0.53,0.28q0.31,0.12 0.64,0.21q0.34,0.08 0.67,0.12q0.34,0.05 0.63,0.05l0,0q0.54,0 0.96,-0.13q0.43,-0.13 0.72,-0.39q0.3,-0.27 0.45,-0.67q0.16,-0.41 0.16,-0.96l0,0q0,-0.98 -0.6,-1.49q-0.6,-0.52 -1.75,-0.52l0,0q-0.19,0 -0.4,0.02q-0.22,0.02 -0.43,0.04q-0.22,0.03 -0.41,0.06q-0.2,0.03 -0.34,0.06l0,0l-0.62,-0.39l0.38,-4.7l4.72,0l0,1.13l-3.64,0l-0.27,2.86q0.22,-0.04 0.58,-0.08q0.36,-0.05 0.85,-0.05zm8.54,0.49l4.12,5.64l-1.49,0l-3.55,-4.77l-1.01,0.89l0,3.88l-1.26,0l0,-9.99l1.26,0l0,4.92l0.86,-0.95l3.56,-3.97l1.47,0l-3.96,4.35z" id="s_12"/>
  <path id="Do2" fill="#ffffff" stroke-width="1.5" stroke="#000000" d="m696.5,380a3.5,3.5 0 1 1 7,0a3.5,3.5 0 1 1 -7,0"/>
  <polyline fill="none" stroke="#000000" stroke-width="1.5" points="460,280 460,220  700,220 " id="Li30"/>
  <path id="Do1" fill="#ffffff" stroke-width="1.5" stroke="#000000" d="m696.5,220a3.5,3.5 0 1 1 7,0a3.5,3.5 0 1 1 -7,0"/>
  <path id="s_13" d="m318.77001,245.2l-3.57,-9.99l1.32,0l2.25,6.41q0.43,1.21 0.63,2.18l0,0q0.17,-0.86 0.63,-2.21l0,0l2.24,-6.38l1.33,0l-3.57,9.99l-1.26,0zm7.25,-7.51l0,7.51l-1.23,0l0,-7.51l1.23,0zm-1.32,-2.03l0,0q0,-0.41 0.2,-0.59q0.21,-0.19 0.52,-0.19l0,0q0.29,0 0.5,0.19q0.22,0.18 0.22,0.59l0,0q0,0.41 -0.22,0.6q-0.21,0.19 -0.5,0.19l0,0q-0.31,0 -0.52,-0.19q-0.2,-0.19 -0.2,-0.6zm10.03,9.54l-1.22,0l0,-4.8q0,-0.91 -0.4,-1.36q-0.41,-0.45 -1.28,-0.45l0,0q-1.15,0 -1.68,0.64q-0.52,0.64 -0.52,2.08l0,0l0,3.89l-1.23,0l0,-7.51l0.99,0l0.19,1.03l0.06,0q0.35,-0.55 0.98,-0.86q0.63,-0.3 1.39,-0.3l0,0q1.38,0 2.05,0.67q0.67,0.67 0.67,2.08l0,0l0,4.89zm5.88,0.14l0,0q-1.51,0 -2.33,-1.09l0,0l-0.08,0l0.03,0.28q0.05,0.53 0.05,0.95l0,0l0,3.08l-1.23,0l0,-10.87l1.02,0l0.16,1.03l0.05,0q0.44,-0.62 1.02,-0.89q0.57,-0.27 1.32,-0.27l0,0q1.47,0 2.28,1.01q0.81,1.02 0.81,2.86l0,0q0,1.84 -0.82,2.87q-0.81,1.04 -2.28,1.04zm-0.21,-6.75l0,0q-1.11,0 -1.61,0.63q-0.49,0.63 -0.51,1.97l0,0l0,0.24q0,1.53 0.51,2.21q0.51,0.68 1.64,0.68l0,0q0.94,0 1.47,-0.77q0.53,-0.76 0.53,-2.13l0,0q0,-1.37 -0.53,-2.1q-0.53,-0.73 -1.5,-0.73z" fill="#0000ff"/>
  <path id="s_14" d="m316.77001,363.86667l-3.57,-9.99l1.32,0l2.25,6.41q0.43,1.21 0.63,2.18l0,0q0.17,-0.86 0.63,-2.21l0,0l2.24,-6.38l1.33,0l-3.57,9.99l-1.26,0zm7.25,-7.51l0,7.51l-1.23,0l0,-7.51l1.23,0zm-1.32,-2.03l0,0q0,-0.41 0.2,-0.59q0.21,-0.19 0.52,-0.19l0,0q0.29,0 0.5,0.19q0.22,0.18 0.22,0.59l0,0q0,0.41 -0.22,0.6q-0.21,0.19 -0.5,0.19l0,0q-0.31,0 -0.52,-0.19q-0.2,-0.19 -0.2,-0.6zm10.03,9.54l-1.22,0l0,-4.8q0,-0.91 -0.4,-1.36q-0.41,-0.45 -1.28,-0.45l0,0q-1.15,0 -1.68,0.64q-0.52,0.64 -0.52,2.08l0,0l0,3.89l-1.23,0l0,-7.51l0.99,0l0.19,1.03l0.06,0q0.35,-0.55 0.98,-0.86q0.63,-0.3 1.39,-0.3l0,0q1.38,0 2.05,0.67q0.67,0.67 0.67,2.08l0,0l0,4.89zm8.65,0l-1.21,0l0,-4.8q0,-0.91 -0.41,-1.36q-0.41,-0.45 -1.27,-0.45l0,0q-1.16,0 -1.68,0.64q-0.53,0.64 -0.53,2.08l0,0l0,3.89l-1.23,0l0,-7.51l1,0l0.18,1.03l0.07,0q0.35,-0.55 0.98,-0.86q0.63,-0.3 1.38,-0.3l0,0q1.38,0 2.05,0.67q0.67,0.67 0.67,2.08l0,0l0,4.89z" fill="#0000ff"/>
  <path id="s_15" d="m46.10333,386.53333l-3.57,-9.99l1.32,0l2.25,6.41q0.43,1.21 0.63,2.18l0,0q0.17,-0.86 0.63,-2.21l0,0l2.24,-6.38l1.33,0l-3.57,9.99l-1.26,0zm12.41,-3.77l0,0q0,1.84 -0.93,2.87q-0.93,1.04 -2.57,1.04l0,0q-1.02,0 -1.81,-0.48q-0.79,-0.47 -1.21,-1.36q-0.42,-0.89 -0.42,-2.07l0,0q0,-1.83 0.91,-2.85q0.92,-1.02 2.57,-1.02l0,0q1.59,0 2.52,1.04q0.94,1.04 0.94,2.83zm-5.67,0l0,0q0,1.42 0.56,2.15q0.55,0.74 1.64,0.74l0,0q1.07,0 1.63,-0.74q0.56,-0.73 0.56,-2.15l0,0q0,-1.41 -0.56,-2.13q-0.56,-0.71 -1.65,-0.71l0,0q-2.18,0 -2.18,2.84zm10.62,3.91l0,0q-1.62,0 -2.52,-1q-0.9,-0.99 -0.9,-2.85l0,0q0,-1.89 0.91,-2.91q0.91,-1.02 2.6,-1.02l0,0q0.55,0 1.08,0.11q0.54,0.11 0.89,0.29l0,0l-0.38,1.03q-0.95,-0.36 -1.62,-0.36l0,0q-1.13,0 -1.67,0.72q-0.54,0.71 -0.54,2.12l0,0q0,1.36 0.54,2.09q0.54,0.72 1.6,0.72l0,0q0.99,0 1.95,-0.44l0,0l0,1.09q-0.78,0.41 -1.94,0.41zm14.48,-0.14l-1.22,0l0,-4.83q0,-1.78 -1.52,-1.78l0,0q-1.05,0 -1.54,0.61q-0.49,0.61 -0.49,1.86l0,0l0,4.14l-1.22,0l0,-4.83q0,-0.89 -0.38,-1.34q-0.37,-0.44 -1.16,-0.44l0,0q-1.04,0 -1.52,0.64q-0.49,0.63 -0.49,2.08l0,0l0,3.89l-1.23,0l0,-7.51l0.99,0l0.19,1.03l0.07,0q0.32,-0.55 0.9,-0.85q0.59,-0.31 1.31,-0.31l0,0q1.77,0 2.3,1.26l0,0l0.07,0q0.36,-0.61 0.99,-0.93q0.62,-0.33 1.41,-0.33l0,0q1.28,0 1.91,0.65q0.63,0.66 0.63,2.1l0,0l0,4.89z" fill="#0000ff"/>
  <path fill="#0000ff" d="m711.36999,224l-3.57,-9.99l1.32,0l2.25,6.41q0.43,1.21 0.63,2.18l0,0q0.17,-0.86 0.63,-2.21l0,0l2.24,-6.38l1.33,0l-3.57,9.99l-1.26,0zm12.41,-3.77l0,0q0,1.84 -0.93,2.87q-0.93,1.04 -2.57,1.04l0,0q-1.02,0 -1.81,-0.48q-0.79,-0.47 -1.21,-1.36q-0.42,-0.89 -0.42,-2.07l0,0q0,-1.83 0.91,-2.85q0.92,-1.02 2.57,-1.02l0,0q1.59,0 2.52,1.04q0.94,1.04 0.94,2.83zm-5.67,0l0,0q0,1.42 0.56,2.15q0.55,0.74 1.64,0.74l0,0q1.07,0 1.63,-0.74q0.56,-0.73 0.56,-2.15l0,0q0,-1.41 -0.56,-2.13q-0.56,-0.71 -1.65,-0.71l0,0q-2.18,0 -2.18,2.84zm11.17,3.91l0,0q-1.51,0 -2.33,-1.09l0,0l-0.08,0l0.03,0.28q0.05,0.53 0.05,0.95l0,0l0,3.08l-1.23,0l0,-10.87l1.02,0l0.16,1.03l0.05,0q0.44,-0.62 1.02,-0.89q0.57,-0.27 1.32,-0.27l0,0q1.47,0 2.28,1.01q0.81,1.02 0.81,2.86l0,0q0,1.84 -0.82,2.87q-0.81,1.04 -2.28,1.04zm-0.21,-6.75l0,0q-1.11,0 -1.61,0.63q-0.49,0.63 -0.51,1.97l0,0l0,0.24q0,1.53 0.51,2.21q0.51,0.68 1.64,0.68l0,0q0.94,0 1.47,-0.77q0.53,-0.76 0.53,-2.13l0,0q0,-1.37 -0.53,-2.1q-0.53,-0.73 -1.5,-0.73z"/>
  <path fill="#0000ff" d="m711.36999,385l-3.57,-9.99l1.32,0l2.25,6.41q0.43,1.21 0.63,2.18l0,0q0.17,-0.86 0.63,-2.21l0,0l2.24,-6.38l1.33,0l-3.57,9.99l-1.26,0zm12.41,-3.77l0,0q0,1.84 -0.93,2.87q-0.93,1.04 -2.57,1.04l0,0q-1.02,0 -1.81,-0.48q-0.79,-0.47 -1.21,-1.36q-0.42,-0.89 -0.42,-2.07l0,0q0,-1.83 0.91,-2.85q0.92,-1.02 2.57,-1.02l0,0q1.59,0 2.52,1.04q0.94,1.04 0.94,2.83zm-5.67,0l0,0q0,1.42 0.56,2.15q0.55,0.74 1.64,0.74l0,0q1.07,0 1.63,-0.74q0.56,-0.73 0.56,-2.15l0,0q0,-1.41 -0.56,-2.13q-0.56,-0.71 -1.65,-0.71l0,0q-2.18,0 -2.18,2.84zm13.94,3.77l-1.21,0l0,-4.8q0,-0.91 -0.41,-1.36q-0.41,-0.45 -1.27,-0.45l0,0q-1.16,0 -1.68,0.64q-0.53,0.64 -0.53,2.08l0,0l0,3.89l-1.23,0l0,-7.51l1,0l0.18,1.03l0.07,0q0.35,-0.55 0.98,-0.86q0.62,-0.3 1.38,-0.3l0,0q1.38,0 2.05,0.67q0.67,0.67 0.67,2.08l0,0l0,4.89z"/>
 </g>
</svg>